<svg id="Capa_1" enable-background="new 0 0 512 512" height="512" viewBox="0 0 512 512" width="512" xmlns="http://www.w3.org/2000/svg"><g><path d="m258.287 34.2h127.279v193.747h-127.279z" fill="#80aef8" transform="matrix(.707 -.707 .707 .707 1.607 266.027)"/><path d="m453 197c0-33.137-26.863-60-60-60h-77v-77c0-33.137-26.863-60-60-60l-110 256 110 256h197z" fill="#4175df"/><path d="m59 0h197v512h-197z" fill="#4086f4"/><path d="m310.5 407h-54.5l-20 15 20 15h54.5z" fill="#e3e7ea"/><path d="m134 407h122v30h-122z" fill="#fff"/><path d="m378 347h-122l-20 15 20 15h122z" fill="#e3e7ea"/><path d="m134 347h122v30h-122z" fill="#fff"/><path d="m378 287h-122l-20 15 20 15h122z" fill="#e3e7ea"/><path d="m134 287h122v30h-122z" fill="#fff"/><path d="m378 227h-122l-20 15 20 15h122z" fill="#e3e7ea"/><path d="m134 227h122v30h-122z" fill="#fff"/></g></svg>